# OBJ written from C:\Users\Alex Ling\Documents\GitHub\Game-Jam-2014\Assets\Models\bed.obj

o Mesh
v -0.9455 1.5 -1.96
v 0.9455 1.5 -1.96
v 0.9455 1.5 -2.24
v -0.9455 1.5 -2.24
v -0.9455 0.36 -1.96
v 0.9455 0.36 -1.96
v 0.9455 0.36 -2.24
v -0.9455 0.36 -2.24
v 0.775 1.5 -1.96
v 0.775 1.5 -2.24
v 0.775 0.36 -1.96
v 0.775 0.36 -2.24
v -0.775 1.5 -1.96
v -0.775 1.5 -2.24
v -0.775 0.36 -1.96
v -0.775 0.36 -2.24
v -0.9455 0.1 -1.96
v 0.9455 0.1 -1.96
v 0.9455 0.1 -2.24
v -0.9455 0.1 -2.24
v 0.775 0.1 -1.96
v 0.775 0.1 -2.24
v -0.775 0.1 -1.96
v -0.775 0.1 -2.24
v 0.9455 0.65 -1.96
v 0.9455 0.65 -2.24
v -0.9455 0.65 -2.24
v -0.9455 0.65 -1.96
v 0.775 0.65 -1.96
v 0.775 0.65 -2.24
v -0.775 0.65 -1.96
v -0.775 0.65 -2.24
v -0.945501 1.5 1.96
v 0.945499 1.5 1.96
v 0.945499 1.5 2.24
v -0.945502 1.5 2.24
v -0.945501 0.36 1.96
v 0.945499 0.36 1.96
v 0.945499 0.36 2.24
v -0.945502 0.36 2.24
v 0.774999 1.5 1.96
v 0.774998 1.5 2.24
v 0.774999 0.36 1.96
v 0.774998 0.36 2.24
v -0.775001 1.5 1.96
v -0.775001 1.5 2.24
v -0.775001 0.36 1.96
v -0.775001 0.36 2.24
v -0.945501 0.1 1.96
v 0.945499 0.1 1.96
v 0.945499 0.1 2.24
v -0.945502 0.1 2.24
v 0.774999 0.1 1.96
v 0.774998 0.1 2.24
v -0.775001 0.1 1.96
v -0.775001 0.1 2.24
v 0.945499 0.65 1.96
v 0.945499 0.65 2.24
v -0.945502 0.65 2.24
v -0.945501 0.65 1.96
v 0.774999 0.65 1.96
v 0.774998 0.65 2.24
v -0.775001 0.65 1.96
v -0.775001 0.65 2.24
vn 0 1 0
vn 0 -1 0
vn -9.61365e-009 -1 -3.80132e-009
vn 1 0 0
vn 0 0 1
vn -1 0 0
vn 0 0 -1
vn -1.92273e-008 -1 -1.2279e-014
vn -1.92273e-008 -1 -3.80133e-009
vn 1 0 6.38621e-007
vn 6.99175e-007 0 -1
vn -1 0 -6.38622e-007
vn -1.39835e-006 0 1
vn -1.13732e-006 0 1
vn 1 0 6.38621e-007
vn 1 0 6.38621e-007
vn -1 0 -6.38621e-007
vn 6.99175e-007 0 -1
vn 6.71208e-007 0 -1
vn 6.57224e-007 0 -1
vn -1.00681e-006 0 1
vn -1.39835e-006 0 1
vn 1 0 3.34516e-007
vn -1 0 -3.34516e-007
vt 0.477459 0
vt 0.5 0
vt 0.5 0.333333
vt 0.477459 0.333333
vt 0.272541 0.333333
vt 0.25 0.333333
vt 0.25 0
vt 0.272541 0
vt 0.272541 0.666667
vt 0.477459 0.666667
vt 0.477459 1
vt 0.272541 1
vt 0.25 1
vt 0.25 0.666667
vt 0.5 0.666667
vt 0.5 1
vt 0.5 0.510623
vt 0.75 0.333333
vt 0.75 0.510623
vt 0.75 0.666667
vt 0 0.510623
vt 0 0.333333
vt 0.25 0.510623
vt 0 0.666667
vt 0.772541 0.333333
vt 0.772541 0.510623
vt 0.772541 0.666667
vt 0.477459 0.510623
vt 0.977459 0.510623
vt 0.977459 0.333333
vt 1 0.333333
vt 1 0.510623
vt 1 0.666667
vt 0.977459 0.666667
vt 0.272541 0.510623
mtllib bed.mtl
usemtl Default
g Default
f 9/1/1 2/2/1 3/3/1 10/4/1
f 14/5/1 4/6/1 1/7/1 13/8/1
f 13/8/1 9/1/1 10/4/1 14/5/1
f 16/9/2 12/10/2 11/11/3 15/12/3
f 16/9/4 15/12/4 23/12/4 24/9/4
f 15/12/5 5/13/5 17/13/5 23/12/5
f 5/13/6 8/14/6 20/14/6 17/13/6
f 8/14/7 16/9/7 24/9/7 20/14/7
f 12/10/7 7/15/7 19/15/7 22/10/7
f 7/15/4 6/16/4 18/16/4 19/15/4
f 6/16/5 11/11/5 21/11/5 18/16/5
f 11/11/6 12/10/6 22/10/6 21/11/6
f 22/10/2 19/15/2 18/16/2 21/11/2
f 23/12/2 17/13/2 20/14/2 24/9/2
f 26/17/4 3/3/4 2/18/4 25/19/4
f 25/19/4 6/20/4 7/15/4 26/17/4
f 28/21/6 1/22/6 4/6/6 27/23/6
f 27/23/6 8/14/6 5/24/6 28/21/6
f 25/19/5 2/18/5 9/25/5 29/26/5
f 29/26/5 11/27/5 6/20/5 25/19/5
f 30/28/7 10/4/7 3/3/7 26/17/7
f 26/17/7 7/15/7 12/10/7 30/28/7
f 31/29/5 13/30/5 1/31/5 28/32/5
f 28/32/5 5/33/5 15/34/5 31/29/5
f 29/26/5 9/25/5 13/30/5 31/29/5
f 27/23/7 4/6/7 14/5/7 32/35/7
f 32/35/7 16/9/7 8/14/7 27/23/7
f 32/35/7 14/5/7 10/4/7 30/28/7
f 30/28/7 12/10/7 16/9/7 32/35/7
f 41/1/1 42/4/1 35/3/1 34/2/1
f 46/5/1 45/8/1 33/7/1 36/6/1
f 45/8/1 46/5/1 42/4/1 41/1/1
f 48/9/8 47/12/9 43/11/9 44/10/8
f 48/9/10 56/9/10 55/12/10 47/12/10
f 47/12/11 55/12/11 49/13/11 37/13/11
f 37/13/12 49/13/12 52/14/12 40/14/12
f 40/14/13 52/14/13 56/9/13 48/9/14
f 44/10/14 54/10/13 51/15/13 39/15/13
f 39/15/15 51/15/16 50/16/16 38/16/15
f 38/16/11 50/16/11 53/11/11 43/11/11
f 43/11/17 53/11/17 54/10/17 44/10/17
f 54/10/2 53/11/2 50/16/2 51/15/2
f 55/12/2 56/9/2 52/14/2 49/13/2
f 58/17/15 57/19/15 34/18/16 35/3/16
f 57/19/15 58/17/15 39/15/15 38/20/15
f 60/21/12 59/23/12 36/6/12 33/22/12
f 59/23/12 60/21/12 37/24/12 40/14/12
f 57/19/18 61/26/19 41/25/20 34/18/18
f 61/26/19 57/19/18 38/20/11 43/27/11
f 62/28/21 58/17/22 35/3/22 42/4/21
f 58/17/22 62/28/21 44/10/14 39/15/13
f 63/29/19 60/32/18 33/31/18 45/30/20
f 60/32/18 63/29/19 47/34/11 37/33/11
f 61/26/19 63/29/19 45/30/20 41/25/20
f 59/23/22 64/35/21 46/5/21 36/6/22
f 64/35/21 59/23/22 40/14/13 48/9/14
f 64/35/21 62/28/21 42/4/21 46/5/21
f 62/28/21 64/35/21 48/9/14 44/10/14
f 43/27/9 47/34/9 15/34/3 11/27/3
f 61/26/23 43/27/23 11/27/23 29/26/23
f 31/29/24 15/34/24 47/34/24 63/29/24
f 61/26/1 29/26/1 31/29/1 63/29/1
